# xmcd
#
# Track frame offsets: 
#        150
#        8921
#        19864
#        30970
#        43610
#        51719
#        63212
#        74109
#        84661
#        96393
#        107584
#        118221
#        131015
#        140114
#        151124
#        161781
#        172825
#        184489
#        194348
#        204550
#        218184
#        231418
#        244005
#        257259
#        269321
#        277446
#        289857
#        300655
#        310633
#        322145
#        333645
#        345300
#
# Disc length: 4724 seconds
#
# Revision: 1
# Processed by: cddbd v1.5.2PL0 Copyright (c) Steve Scherf et al.
# Submitted via: ExactAudioCopy v0.99pb4
#
DISCID=ee127220
DTITLE=Chris Kenner - 32 Greatest Hits From New Orleans
DYEAR=1900
DGENRE=Male singer
TTITLE0=I Like It Like That Pt 1
TTITLE1=You Can't Beat Uncle Sam
TTITLE2=Land of 1000 Dances
TTITLE3=Don't Let Her Pin That Charge On Me
TTITLE4=Nothing Will Keep Me From You
TTITLE5=Grandma's House
TTITLE6=Sick and Tired
TTITLE7=Don't Make No Noise
TTITLE8=Get On This Train
TTITLE9=A Very True Story
TTITLE10=I Have News For You
TTITLE11=Something You Got
TTITLE12=You Will Be Mine
TTITLE13=Johnny Little
TTITLE14=I'm The Greatest
TTITLE15=Let Me Show You How To Twist
TTITLE16=Packing Up
TTITLE17=She Can Dance
TTITLE18=That's My Girl
TTITLE19=The Life Of My Baby
TTITLE20=Shoo-rah
TTITLE21=Wind The Clock
TTITLE22=They Took My Money
TTITLE23=Fumigate Funky Broadway
TTITLE24=Right Kind Of Girl
TTITLE25=Life Is A Struggle
TTITLE26=Rocket To The Moon
TTITLE27=Go Through Life
TTITLE28=Stretch My Hand To You
TTITLE29=Memories Of A King Pt 1
TTITLE30=Memories Of A King Pt 2
TTITLE31=I Like It Like That Pt 2
EXTD=
EXTT0=
EXTT1=
EXTT2=
EXTT3=
EXTT4=
EXTT5=
EXTT6=
EXTT7=
EXTT8=
EXTT9=
EXTT10=
EXTT11=
EXTT12=
EXTT13=
EXTT14=
EXTT15=
EXTT16=
EXTT17=
EXTT18=
EXTT19=
EXTT20=
EXTT21=
EXTT22=
EXTT23=
EXTT24=
EXTT25=
EXTT26=
EXTT27=
EXTT28=
EXTT29=
EXTT30=
EXTT31=
PLAYORDER=
